<?xml version="1.0" standalone="no"?>
<svg xmlns="http://www.w3.org/2000/svg" width="2041" height="377" viewBox="0 0 2041 377" preserveAspectRatio="xMidYMid meet">
<g transform="translate(0,377) scale(0.1,-0.1)" fill="#181818" stroke="none">
<path d="M2167 3293 c-4 -3 -7 -638 -7 -1410 l0 -1403 1413 0 1412 0 -3 277 c-2 153 -6 280 -8 282 -2 3 -510 5 -1129 5 l-1125 1 0 292 0 293 1128 0 c621 0 1131 2 1133 4 2 2 3 131 1 285 l-3 281 -1129 0 -1130 0 0 265 0 265 1130 0 1130 0 0 285 0 285 -1403 0 c-772 0 -1407 -3 -1410 -7z"></path>
<path d="M9446 3293 c-8 -8 -7 -2779 1 -2800 4 -10 64 -13 279 -13 l274 0 0 575 0 575 854 0 853 0 -2 -562 c-1 -310 0 -569 2 -575 4 -10 69 -13 279 -13 l274 0 -2 1408 -3 1407 -1401 3 c-770 1 -1404 -1 -1408 -5z m2264 -812 c0 -137 -3 -256 -6 -265 -6 -14 -90 -16 -855 -16 l-849 0 0 265 0 265 855 0 855 0 0 -249z"></path>
<path d="M12488 3273 c-4 -22 -3 -1474 2 -2685 l0 -108 1410 0 1410 0 0 280 0 280 -252 2 c-139 1 -649 2 -1133 2 l-880 1 -1 842 -1 843 1131 2 1131 3 0 280 0 280 -1406 3 -1406 2 -5 -27z"></path>
<path d="M15557 3268 c-5 -37 -5 -2513 1 -2681 l3 -107 275 0 274 0 0 73 c1 39 0 298 0 575 l-1 502 851 0 850 0 0 -575 0 -575 275 0 275 0 0 1410 0 1410 -275 0 -275 0 -1 -77 c-1 -43 0 -291 1 -550 l1 -473 -850 0 -851 0 0 550 0 550 -274 0 -274 0 -5 -32z"></path>
<path d="M6898 3215 c-233 -44 -453 -185 -594 -380 -42 -57 -1196 -2364 -1189 -2375 14 -22 403 -29 544 -10 294 40 497 150 664 360 51 63 124 203 467 895 246 496 425 844 452 880 73 99 217 207 338 255 38 15 181 50 205 50 20 0 -9 29 -97 100 -121 94 -286 181 -403 211 -106 27 -284 33 -387 14z"></path>
<path d="M8380 3219 c-236 -36 -468 -177 -612 -371 -35 -49 -226 -421 -630 -1230 -318 -638 -576 -1164 -572 -1167 3 -3 130 -6 282 -6 293 0 361 8 507 57 200 68 369 207 478 393 41 70 373 732 642 1282 188 382 221 433 347 535 116 94 255 159 371 173 31 4 57 11 57 16 0 13 -138 117 -234 175 -105 63 -215 110 -305 130 -87 19 -250 25 -331 13z"></path>
</g>
</svg>